<svg id="Layer_1" data-name="Layer 1" xmlns="http://www.w3.org/2000/svg" viewBox="0 0 102 17"><defs><style>.cls-1{fill:none;}.cls-2{fill:#191919;}</style></defs><rect class="cls-1" width="102" height="17"/><path class="cls-2" d="M939.0672,515.5312a4.2843,4.2843,0,0,1-4.2585-4.3,4.2,4.2,0,0,1,4.2166-4.2724,4.2711,4.2711,0,0,1,4.2827,3.3738l.0413.1874h-2.6358l-.0415-.09a1.6246,1.6246,0,0,0-1.5908-.9993,1.6734,1.6734,0,0,0-1.6326,1.814,1.6967,1.6967,0,0,0,1.6883,1.8139,1.6151,1.6151,0,0,0,1.5384-.95l.0433-.0829h2.6478l-.0452.19A4.281,4.281,0,0,1,939.0672,515.5312Zm-.0419-8.2639a3.8942,3.8942,0,0,0-3.908,3.9638,4.0066,4.0066,0,0,0,7.8539,1.1036h-2.0673a1.91,1.91,0,0,1-1.767,1.0327,2.1287,2.1287,0,0,1-.0557-4.245,1.9279,1.9279,0,0,1,1.8275,1.089h2.0523A3.9693,3.9693,0,0,0,939.0253,507.2673Z" transform="translate(-892.5904 -502.6779)"/><path class="cls-2" d="M961.7531,515.28h-2.626v-4.4539c0-.9811-.307-1.3813-1.06-1.3813-.8212,0-1.1717.4215-1.1717,1.4091V515.28h-2.626v-8.0563h2.4723v.5415a2.4334,2.4334,0,0,1,1.9817-.8067,2.9027,2.9027,0,0,1,3.03,3.2254Zm-2.3174-.3086h2.0089v-4.7875a2.5991,2.5991,0,0,0-2.7213-2.9168,2.0821,2.0821,0,0,0-1.9766,1.0154l-.0452.0735h-.24l-.028-.1543v-.6694h-1.8551v7.4391h2.0088v-4.1175c0-1.1558.4843-1.7177,1.48-1.7177.9339,0,1.3687.537,1.3687,1.69Z" transform="translate(-892.5904 -502.6779)"/><path class="cls-2" d="M970.2394,515.28h-2.6261v-4.4539c0-.9811-.307-1.3813-1.06-1.3813-.8212,0-1.1717.4215-1.1717,1.4091V515.28h-2.626v-8.0563h2.4723v.5415a2.4331,2.4331,0,0,1,1.9814-.8067,2.9029,2.9029,0,0,1,3.03,3.2254Zm-2.3175-.3086h2.0089v-4.7875a2.5992,2.5992,0,0,0-2.7216-2.9168,2.0816,2.0816,0,0,0-1.9763,1.0154l-.0452.0735h-.24l-.0281-.1543v-.6694h-1.8551v7.4391h2.0088v-4.1175c0-1.1558.4843-1.7177,1.48-1.7177.9339,0,1.3687.537,1.3687,1.69Z" transform="translate(-892.5904 -502.6779)"/><path class="cls-2" d="M975.1831,515.5312a4.2867,4.2867,0,1,1,4.2027-4.1886,3.0876,3.0876,0,0,1-.0591.6446l-.0247.1242h-5.7456a1.5919,1.5919,0,0,0,1.6267,1.1569,1.481,1.481,0,0,0,1.288-.666l.0461-.06h2.6848l-.0947.2161A4.2921,4.2921,0,0,1,975.1831,515.5312Zm-.0419-8.2639a3.9785,3.9785,0,1,0,3.5831,5.5836h-2.0564a1.758,1.758,0,0,1-1.4848.726,1.8777,1.8777,0,0,1-1.9676-1.5981l-.025-.176h5.8557a2.966,2.966,0,0,0,.031-.46A3.92,3.92,0,0,0,975.1412,507.2673Zm1.9663,3.2805h-3.9031l.0413-.1874a1.87,1.87,0,0,1,1.8955-1.4473,1.8986,1.8986,0,0,1,1.9233,1.4461Zm-3.5065-.3086h3.1073a1.6949,1.6949,0,0,0-3.1073,0Z" transform="translate(-892.5904 -502.6779)"/><path class="cls-2" d="M984.3068,515.5312a4.2842,4.2842,0,0,1-4.2584-4.3,4.2,4.2,0,0,1,4.2165-4.2724,4.2709,4.2709,0,0,1,4.2826,3.3738l.0413.1874h-2.636l-.0412-.09a1.625,1.625,0,0,0-1.5909-.9993,1.6733,1.6733,0,0,0-1.6324,1.814,1.6967,1.6967,0,0,0,1.6882,1.8139,1.6152,1.6152,0,0,0,1.5384-.95l.0431-.0829h2.6483l-.0452.19A4.2816,4.2816,0,0,1,984.3068,515.5312Zm-.0419-8.2639a3.8942,3.8942,0,0,0-3.9079,3.9638,4.0067,4.0067,0,0,0,7.8542,1.1036h-2.0676a1.91,1.91,0,0,1-1.7671,1.0327,2.1287,2.1287,0,0,1-.0558-4.245,1.9276,1.9276,0,0,1,1.8274,1.089H988.2A3.9687,3.9687,0,0,0,984.2649,507.2673Z" transform="translate(-892.5904 -502.6779)"/><path class="cls-2" d="M992.4739,515.28h-2.626v-5.9889h-1.1446v-2.0674h1.1446v-2.5825h2.626v2.5825H993.59v2.0674h-1.1165Zm-2.3175-.3086h2.0089v-5.9889h1.1165v-1.45h-1.1165V504.95h-2.0089v2.5825h-1.1445v1.45h1.1445Z" transform="translate(-892.5904 -502.6779)"/><path class="cls-2" d="M948.687,515.5315a5.1564,5.1564,0,0,1-3.5753-1.3344,3.6513,3.6513,0,0,1-1.1623-2.6893,4.0547,4.0547,0,0,1,.7935-2.4906.7333.7333,0,0,1,.6678-.3319.321.321,0,0,1,.0337,0,1.9519,1.9519,0,0,1,.984-1.1594,5.2885,5.2885,0,0,1,5.8261.7285,4.0771,4.0771,0,0,1,1.35,2.8422c.0944,2.3663-1.95,4.3115-4.6538,4.4288C948.8624,515.5294,948.7744,515.5315,948.687,515.5315Zm-3.3206-6.5381a.4245.4245,0,0,0-.3782.2113,3.747,3.747,0,0,0-.73,2.3031,3.35,3.35,0,0,0,1.0671,2.4663,4.8939,4.8939,0,0,0,3.6124,1.2431c2.5316-.1094,4.4461-1.9139,4.3585-4.1078a3.7708,3.7708,0,0,0-1.25-2.6275,4.7707,4.7707,0,0,0-3.4291-1.2032,4.8382,4.8382,0,0,0-2.0453.5212,1.6652,1.6652,0,0,0-.823.9439.2872.2872,0,0,1-.3432.25Zm3.5186,5.11a2.9144,2.9144,0,0,1-3.003-3.0873c.0386-.6964.223-.7347.2839-.7472.0591-.0122.1715-.0083.2552.1588a1.7831,1.7831,0,0,0,.4225.558,1.8786,1.8786,0,0,0,.93.5586,1.6341,1.6341,0,0,0,1.6439-.4655,1.5647,1.5647,0,0,1-1.0436-.6363,1.5321,1.5321,0,0,1-.2338-1.2336c.147-.56.9634-.81,1.3648-.7817a2.1728,2.1728,0,0,1,1.4577.6452,2.0984,2.0984,0,0,1,.3631.4392,2.9965,2.9965,0,0,1,.49,1.5921,2.8946,2.8946,0,0,1-.8022,2.1206A2.98,2.98,0,0,1,948.885,514.1037Zm-2.6585-3.3876a2.2858,2.2858,0,0,0-.0362.3089,2.59,2.59,0,0,0,2.6947,2.77,2.6691,2.6691,0,0,0,1.9079-.7857,2.5889,2.5889,0,0,0,.7148-1.8973,2.705,2.705,0,0,0-.4442-1.4379,1.7793,1.7793,0,0,0-.31-.3744,1.8394,1.8394,0,0,0-1.2678-.5643c-.308-.0175-.9532.1949-1.0472.5522a1.2319,1.2319,0,0,0,.1884.978,1.3235,1.3235,0,0,0,1.0068.5313.1967.1967,0,0,1,.1537.1036.2046.2046,0,0,1,.0027.1924,1.9081,1.9081,0,0,1-2.0965.7493,2.1627,2.1627,0,0,1-1.0575-.6279A2.0827,2.0827,0,0,1,946.2265,510.7161Z" transform="translate(-892.5904 -502.6779)"/><path class="cls-2" d="M899.8981,515.135v-.8544H899.87a2.5352,2.5352,0,0,1-2.3209,1.1249,3.9743,3.9743,0,0,1-3.9584-4.229,4.0383,4.0383,0,0,1,3.9584-4.2146,2.6784,2.6784,0,0,1,2.3209,1.1106h.0284v-.84h2.3637v7.9026Zm0-3.9585a2.0053,2.0053,0,0,0-2.0076-2.0076,2.015,2.015,0,1,0,2.0076,2.0076Z" transform="translate(-892.5904 -502.6779)"/><path class="cls-2" d="M909.5763,514.2094a2.3626,2.3626,0,0,1-2.2071,1.1819,3.95,3.95,0,0,1-3.9726-4.1578,4.0274,4.0274,0,0,1,3.9726-4.2574,2.4836,2.4836,0,0,1,2.1928.9968h.0285v-.74h2.3636v7.0625a5.3751,5.3751,0,0,1-.4272,2.4206,4.5346,4.5346,0,0,1-4.1007,1.9364c-2.2355,0-3.6878-1.2672-3.8872-2.7765h2.7338a1.3929,1.3929,0,0,0,1.3812.7831c1.1961,0,1.9223-.7831,1.9223-2.2213Zm.0142-2.99a1.9173,1.9173,0,1,0-1.9365,1.9649A1.869,1.869,0,0,0,909.5905,511.2193Z" transform="translate(-892.5904 -502.6779)"/><path class="cls-2" d="M913.3206,515.135v-7.9026h2.3637v7.9026Z" transform="translate(-892.5904 -502.6779)"/><path class="cls-2" d="M917.0658,515.135v-7.9026h2.3636v7.9026Z" transform="translate(-892.5904 -502.6779)"/><path class="cls-2" d="M921.679,515.135v-6.1085h-1.1676v-1.7941h1.1676v-3.5268h2.3637v3.5268h1.1391v1.7941h-1.1391v6.1085Z" transform="translate(-892.5904 -502.6779)"/><path class="cls-2" d="M929.6621,515.377a4.2008,4.2008,0,1,1,4.2574-4.2289A4.1332,4.1332,0,0,1,929.6621,515.377Zm1.8937-4.2a1.8962,1.8962,0,1,0-1.8937,1.9935A1.9449,1.9449,0,0,0,931.5558,511.1765Z" transform="translate(-892.5904 -502.6779)"/><path class="cls-2" d="M915.9777,504.9233a1.3978,1.3978,0,0,0-1.5425-1.218,1.6489,1.6489,0,0,0-.6725.1649.557.557,0,0,0-.2882.3242c-.0126.0859-.1141-.03-.2327.119a1.171,1.171,0,0,0-.2428.7338,1.3418,1.3418,0,0,0,1.5426,1.1828A1.37,1.37,0,0,0,915.9777,504.9233Zm-1.4549.8713a.8583.8583,0,0,1-.9079-.8978h0c.0074-.1279.041-.2312.0787-.159a.5986.5986,0,0,0,.1456.1846.6483.6483,0,0,0,.3168.1817.5682.5682,0,0,0,.6117-.2058.015.015,0,0,0-.0108-.0216.4276.4276,0,0,1-.4238-.5212c.0373-.1364.2645-.2114.3843-.2042a.6518.6518,0,0,1,.4343.1852.6013.6013,0,0,1,.1072.1245.8526.8526,0,0,1-.7361,1.3336Z" transform="translate(-892.5904 -502.6779)"/><path class="cls-2" d="M919.4946,504.3134c-.1186-.149-.22-.0331-.2326-.119a.557.557,0,0,0-.2882-.3242,1.65,1.65,0,0,0-.6725-.1649,1.3978,1.3978,0,0,0-1.5426,1.218,1.37,1.37,0,0,0,1.4361,1.3067,1.3417,1.3417,0,0,0,1.5426-1.1828A1.171,1.171,0,0,0,919.4946,504.3134Zm-.3731.5834a.8978.8978,0,1,1-1.644-.4358.6018.6018,0,0,1,.1073-.1245.6515.6515,0,0,1,.4343-.1852c.12-.0072.347.0678.3843.2042a.4276.4276,0,0,1-.4239.5212.015.015,0,0,0-.0108.0216.5683.5683,0,0,0,.6118.2058.6481.6481,0,0,0,.3167-.1817.5971.5971,0,0,0,.1456-.1846c.0377-.0722.0713.0311.0787.159Z" transform="translate(-892.5904 -502.6779)"/></svg>